<svg width="38px" height="38px" viewBox="0 0 38 38" version="1.1" xmlns="http://www.w3.org/2000/svg">
    <g stroke="none" stroke-width="1" fill="none" fill-rule="evenodd">
        <g transform="translate(0.400000, 0.400000)" fill-rule="nonzero">
            <path d="M23.253326,1.22624974 C36.7397893,4.84604181 39.1376459,11.3586143 35.9537421,23.2611798 C32.7698384,35.1637452 27.4424394,39.6028447 13.9559763,35.9830526 C0.46951308,32.3632605 -1.92834357,25.850688 1.2555602,13.9481226 C4.43946395,2.04555705 9.76686291,-2.39354231 23.253326,1.22624974 Z" id="Path" fill="#00AAFF"></path>
            <path d="M21.2393538,24.2765391 L21.2393538,7.03516931 C21.2393538,6.13813982 21.9665399,5.41095374 22.8635694,5.41095374 C23.760599,5.41095374 24.487785,6.13813982 24.487785,7.03516931 L24.487785,25.9007547 C24.487785,26.7977842 23.760599,27.5249702 22.8635694,27.5249702 L15.2699883,27.5249702 C14.3729588,27.5249702 13.6457728,26.7977842 13.6457728,25.9007547 C13.6457728,25.0037251 14.3729588,24.2765391 15.2699883,24.2765391 L21.2393538,24.2765391 Z" id="Path" fill="#FFFFFF" transform="translate(19.066779, 16.467962) rotate(45.000000) translate(-19.066779, -16.467962) "></path>
        </g>
    </g>
</svg>
